<svg width="679" height="474" viewBox="0 0 679 474" fill="none" xmlns="http://www.w3.org/2000/svg">
<g clip-path="url(#clip0_1229_1131)">
<path d="M84.5109 129.423C85.7463 116.117 89.1586 103.105 94.6114 90.9056C96.1311 87.5107 97.8038 84.1904 99.6295 80.9449C99.721 80.7751 99.7431 80.5765 99.691 80.3908C99.6389 80.2051 99.5167 80.047 99.3502 79.9497C99.1837 79.8524 98.9859 79.8235 98.7986 79.8692C98.6112 79.9149 98.449 80.0316 98.346 80.1946C91.7067 92.0156 87.0554 104.847 84.5782 118.177C83.8891 121.899 83.3711 125.648 83.0244 129.423C82.9363 130.375 84.4233 130.369 84.5109 129.423Z" fill="#E6E6E6"/>
<path d="M103.23 83.3288C108.429 83.3288 112.644 79.1138 112.644 73.9144C112.644 68.715 108.429 64.5 103.23 64.5C98.0304 64.5 93.8154 68.715 93.8154 73.9144C93.8154 79.1138 98.0304 83.3288 103.23 83.3288Z" fill="#E6E6E6"/>
<path d="M85.4739 129.673C86.2754 121.041 88.4891 112.599 92.0266 104.685C93.0125 102.482 94.0977 100.328 95.2821 98.2229C95.3415 98.1128 95.3558 97.984 95.322 97.8635C95.2882 97.7431 95.2089 97.6404 95.1009 97.5773C94.9929 97.5142 94.8646 97.4954 94.743 97.5251C94.6215 97.5547 94.5162 97.6304 94.4494 97.7362C90.1422 105.405 87.1247 113.73 85.5176 122.377C85.0705 124.792 84.7345 127.224 84.5096 129.673C84.4524 130.291 85.4171 130.287 85.4739 129.673Z" fill="#E6E6E6"/>
<path d="M97.6178 99.7696C100.991 99.7696 103.725 97.0351 103.725 93.662C103.725 90.2889 100.991 87.5544 97.6178 87.5544C94.2446 87.5544 91.5102 90.2889 91.5102 93.662C91.5102 97.0351 94.2446 99.7696 97.6178 99.7696Z" fill="#E6E6E6"/>
<path d="M84.2568 129.096C79.5796 121.797 76.133 113.78 74.0544 105.363C73.4771 103.02 73.0079 100.655 72.6467 98.266C72.6258 98.1426 72.5579 98.0322 72.4571 97.958C72.3564 97.8838 72.2307 97.8517 72.1067 97.8683C71.9827 97.885 71.8701 97.9491 71.7925 98.0473C71.7149 98.1454 71.6784 98.2698 71.6908 98.3943C73.0114 107.09 75.7523 115.51 79.8039 123.317C80.9367 125.496 82.1675 127.62 83.4964 129.689C83.8312 130.212 84.5895 129.615 84.2568 129.096Z" fill="#E6E6E6"/>
<path d="M71.6831 99.3407C75.0562 99.3407 77.7907 96.6063 77.7907 93.2332C77.7907 89.8601 75.0562 87.1256 71.6831 87.1256C68.31 87.1256 65.5756 89.8601 65.5756 93.2332C65.5756 96.6063 68.31 99.3407 71.6831 99.3407Z" fill="#E6E6E6"/>
<path d="M65.507 134.5V122.5C65.5083 121.307 65.9829 120.163 66.8265 119.319C67.6701 118.476 68.8139 118.001 70.007 118H98.007C99.2 118.001 100.344 118.476 101.187 119.319C102.031 120.163 102.506 121.307 102.507 122.5V134.5C102.506 135.693 102.031 136.837 101.187 137.68C100.344 138.524 99.2 138.999 98.007 139H70.007C68.8139 138.999 67.6701 138.524 66.8265 137.68C65.9829 136.837 65.5083 135.693 65.507 134.5Z" fill="#F2F2F2"/>
<path d="M97.007 58H85.007C83.8139 57.9987 82.6701 57.5241 81.8265 56.6805C80.9829 55.8369 80.5083 54.6931 80.507 53.5V4.5C80.5083 3.30694 80.9829 2.16313 81.8265 1.3195C82.6701 0.475881 83.8139 0.00134456 85.007 0H97.007C98.2 0.00134456 99.3438 0.475881 100.187 1.3195C101.031 2.16313 101.506 3.30694 101.507 4.5V53.5C101.506 54.6931 101.031 55.8369 100.187 56.6805C99.3438 57.5241 98.2 57.9987 97.007 58Z" fill="#F2F2F2"/>
<path d="M101.007 9.5H81.007V13.5H101.007V9.5Z" fill="#CCCCCC"/>
<path d="M101.007 40.5H81.007V44.5H101.007V40.5Z" fill="#CCCCCC"/>
<path d="M127.007 58H115.007C113.814 57.9987 112.67 57.5241 111.826 56.6805C110.983 55.8369 110.508 54.6931 110.507 53.5V4.5C110.508 3.30694 110.983 2.16313 111.826 1.3195C112.67 0.475881 113.814 0.00134456 115.007 0H127.007C128.2 0.00134456 129.344 0.475881 130.187 1.3195C131.031 2.16313 131.506 3.30694 131.507 4.5V53.5C131.506 54.6931 131.031 55.8369 130.187 56.6805C129.344 57.5241 128.2 57.9987 127.007 58Z" fill="#F2F2F2"/>
<path d="M131.007 9.5H111.007V13.5H131.007V9.5Z" fill="#CCCCCC"/>
<path d="M131.007 40.5H111.007V44.5H131.007V40.5Z" fill="#CCCCCC"/>
<path d="M157.007 58H145.007C143.814 57.9987 142.67 57.5241 141.826 56.6805C140.983 55.8369 140.508 54.6931 140.507 53.5V4.5C140.508 3.30694 140.983 2.16313 141.826 1.3195C142.67 0.475881 143.814 0.00134456 145.007 0H157.007C158.2 0.00134456 159.344 0.475881 160.187 1.3195C161.031 2.16313 161.506 3.30694 161.507 4.5V53.5C161.506 54.6931 161.031 55.8369 160.187 56.6805C159.344 57.5241 158.2 57.9987 157.007 58Z" fill="#F2F2F2"/>
<path d="M161.007 9.5H141.007V13.5H161.007V9.5Z" fill="#CCCCCC"/>
<path d="M161.007 40.5H141.007V44.5H161.007V40.5Z" fill="#CCCCCC"/>
<path d="M173.007 139H161.007C159.814 138.999 158.67 138.524 157.826 137.68C156.983 136.837 156.508 135.693 156.507 134.5V85.5C156.508 84.3069 156.983 83.1631 157.826 82.3195C158.67 81.4759 159.814 81.0013 161.007 81H173.007C174.2 81.0013 175.344 81.4759 176.187 82.3195C177.031 83.1631 177.506 84.3069 177.507 85.5V134.5C177.506 135.693 177.031 136.837 176.187 137.68C175.344 138.524 174.2 138.999 173.007 139Z" fill="#F2F2F2"/>
<path d="M177.007 90.5H157.007V94.5H177.007V90.5Z" fill="#CCCCCC"/>
<path d="M177.007 121.5H157.007V125.5H177.007V121.5Z" fill="#CCCCCC"/>
<path d="M203.007 139H191.007C189.814 138.999 188.67 138.524 187.826 137.68C186.983 136.837 186.508 135.693 186.507 134.5V85.5C186.508 84.3069 186.983 83.1631 187.826 82.3195C188.67 81.4759 189.814 81.0013 191.007 81H203.007C204.2 81.0013 205.344 81.4759 206.187 82.3195C207.031 83.1631 207.506 84.3069 207.507 85.5V134.5C207.506 135.693 207.031 136.837 206.187 137.68C205.344 138.524 204.2 138.999 203.007 139Z" fill="#F2F2F2"/>
<path d="M207.007 90.5H187.007V94.5H207.007V90.5Z" fill="#CCCCCC"/>
<path d="M207.007 121.5H187.007V125.5H207.007V121.5Z" fill="#CCCCCC"/>
<path d="M233.007 139H221.007C219.814 138.999 218.67 138.524 217.826 137.68C216.983 136.837 216.508 135.693 216.507 134.5V85.5C216.508 84.3069 216.983 83.1631 217.826 82.3195C218.67 81.4759 219.814 81.0013 221.007 81H233.007C234.2 81.0013 235.344 81.4759 236.187 82.3195C237.031 83.1631 237.506 84.3069 237.507 85.5V134.5C237.506 135.693 237.031 136.837 236.187 137.68C235.344 138.524 234.2 138.999 233.007 139Z" fill="#F2F2F2"/>
<path d="M237.007 90.5H217.007V94.5H237.007V90.5Z" fill="#CCCCCC"/>
<path d="M237.007 121.5H217.007V125.5H237.007V121.5Z" fill="#CCCCCC"/>
<path d="M94.007 220H82.007C80.8139 219.999 79.6701 219.524 78.8265 218.68C77.9829 217.837 77.5083 216.693 77.507 215.5V166.5C77.5083 165.307 77.9829 164.163 78.8265 163.319C79.6701 162.476 80.8139 162.001 82.007 162H94.007C95.2 162.001 96.3438 162.476 97.1875 163.319C98.0311 164.163 98.5056 165.307 98.507 166.5V215.5C98.5056 216.693 98.0311 217.837 97.1875 218.68C96.3438 219.524 95.2 219.999 94.007 220Z" fill="#F2F2F2"/>
<path d="M98.007 171.5H78.007V175.5H98.007V171.5Z" fill="#CCCCCC"/>
<path d="M98.007 202.5H78.007V206.5H98.007V202.5Z" fill="#CCCCCC"/>
<path d="M124.007 220H112.007C110.814 219.999 109.67 219.524 108.826 218.68C107.983 217.837 107.508 216.693 107.507 215.5V166.5C107.508 165.307 107.983 164.163 108.826 163.319C109.67 162.476 110.814 162.001 112.007 162H124.007C125.2 162.001 126.344 162.476 127.187 163.319C128.031 164.163 128.506 165.307 128.507 166.5V215.5C128.506 216.693 128.031 217.837 127.187 218.68C126.344 219.524 125.2 219.999 124.007 220Z" fill="#F2F2F2"/>
<path d="M128.007 171.5H108.007V175.5H128.007V171.5Z" fill="#CCCCCC"/>
<path d="M128.007 202.5H108.007V206.5H128.007V202.5Z" fill="#CCCCCC"/>
<path d="M154.007 220H142.007C140.814 219.999 139.67 219.524 138.826 218.68C137.983 217.837 137.508 216.693 137.507 215.5V166.5C137.508 165.307 137.983 164.163 138.826 163.319C139.67 162.476 140.814 162.001 142.007 162H154.007C155.2 162.001 156.344 162.476 157.187 163.319C158.031 164.163 158.506 165.307 158.507 166.5V215.5C158.506 216.693 158.031 217.837 157.187 218.68C156.344 219.524 155.2 219.999 154.007 220Z" fill="#F2F2F2"/>
<path d="M158.007 171.5H138.007V175.5H158.007V171.5Z" fill="#CCCCCC"/>
<path d="M158.007 202.5H138.007V206.5H158.007V202.5Z" fill="#CCCCCC"/>
<path d="M187.007 58H175.007C173.814 57.9987 172.67 57.5241 171.826 56.6805C170.983 55.8369 170.508 54.6931 170.507 53.5V4.5C170.508 3.30694 170.983 2.16313 171.826 1.3195C172.67 0.475881 173.814 0.00134456 175.007 0H187.007C188.2 0.00134456 189.344 0.475881 190.187 1.3195C191.031 2.16313 191.506 3.30694 191.507 4.5V53.5C191.506 54.6931 191.031 55.8369 190.187 56.6805C189.344 57.5241 188.2 57.9987 187.007 58Z" fill="#F2F2F2"/>
<path d="M191.007 9.5H171.007V13.5H191.007V9.5Z" fill="#CCCCCC"/>
<path d="M191.007 40.5H171.007V44.5H191.007V40.5Z" fill="#CCCCCC"/>
<path d="M217.007 58H205.007C203.814 57.9987 202.67 57.5241 201.826 56.6805C200.983 55.8369 200.508 54.6931 200.507 53.5V4.5C200.508 3.30694 200.983 2.16313 201.826 1.3195C202.67 0.475881 203.814 0.00134456 205.007 0H217.007C218.2 0.00134456 219.344 0.475881 220.187 1.3195C221.031 2.16313 221.506 3.30694 221.507 4.5V53.5C221.506 54.6931 221.031 55.8369 220.187 56.6805C219.344 57.5241 218.2 57.9987 217.007 58Z" fill="#F2F2F2"/>
<path d="M221.007 9.5H201.007V13.5H221.007V9.5Z" fill="#CCCCCC"/>
<path d="M221.007 40.5H201.007V44.5H221.007V40.5Z" fill="#CCCCCC"/>
<path d="M247.007 58H235.007C233.814 57.9987 232.67 57.5241 231.826 56.6805C230.983 55.8369 230.508 54.6931 230.507 53.5V4.5C230.508 3.30694 230.983 2.16313 231.826 1.3195C232.67 0.475881 233.814 0.00134456 235.007 0H247.007C248.2 0.00134456 249.344 0.475881 250.187 1.3195C251.031 2.16313 251.506 3.30694 251.507 4.5V53.5C251.506 54.6931 251.031 55.8369 250.187 56.6805C249.344 57.5241 248.2 57.9987 247.007 58Z" fill="#F2F2F2"/>
<path d="M251.007 9.5H231.007V13.5H251.007V9.5Z" fill="#CCCCCC"/>
<path d="M251.007 40.5H231.007V44.5H251.007V40.5Z" fill="#CCCCCC"/>
<path d="M277.007 58H265.007C263.814 57.9987 262.67 57.5241 261.826 56.6805C260.983 55.8369 260.508 54.6931 260.507 53.5V4.5C260.508 3.30694 260.983 2.16313 261.826 1.3195C262.67 0.475881 263.814 0.00134456 265.007 0H277.007C278.2 0.00134456 279.344 0.475881 280.187 1.3195C281.031 2.16313 281.506 3.30694 281.507 4.5V53.5C281.506 54.6931 281.031 55.8369 280.187 56.6805C279.344 57.5241 278.2 57.9987 277.007 58Z" fill="#F2F2F2"/>
<path d="M281.007 9.5H261.007V13.5H281.007V9.5Z" fill="#CCCCCC"/>
<path d="M281.007 40.5H261.007V44.5H281.007V40.5Z" fill="#CCCCCC"/>
<path d="M321.948 59.5H36.9479C36.6827 59.5 36.4284 59.3946 36.2408 59.2071C36.0533 59.0196 35.9479 58.7652 35.9479 58.5C35.9479 58.2348 36.0533 57.9804 36.2408 57.7929C36.4284 57.6053 36.6827 57.5 36.9479 57.5H321.948C322.213 57.5 322.467 57.6053 322.655 57.7929C322.843 57.9804 322.948 58.2348 322.948 58.5C322.948 58.7652 322.843 59.0196 322.655 59.2071C322.467 59.3946 322.213 59.5 321.948 59.5Z" fill="#DFE4EA"/>
<path d="M321.948 140.5H36.9479C36.6827 140.5 36.4284 140.395 36.2408 140.207C36.0533 140.02 35.9479 139.765 35.9479 139.5C35.9479 139.235 36.0533 138.98 36.2408 138.793C36.4284 138.605 36.6827 138.5 36.9479 138.5H321.948C322.213 138.5 322.467 138.605 322.655 138.793C322.843 138.98 322.948 139.235 322.948 139.5C322.948 139.765 322.843 140.02 322.655 140.207C322.467 140.395 322.213 140.5 321.948 140.5Z" fill="#DFE4EA"/>
<path d="M321.948 221.5H36.9479C36.6827 221.5 36.4284 221.395 36.2408 221.207C36.0533 221.02 35.9479 220.765 35.9479 220.5C35.9479 220.235 36.0533 219.98 36.2408 219.793C36.4284 219.605 36.6827 219.5 36.9479 219.5H321.948C322.213 219.5 322.467 219.605 322.655 219.793C322.843 219.98 322.948 220.235 322.948 220.5C322.948 220.765 322.843 221.02 322.655 221.207C322.467 221.395 322.213 221.5 321.948 221.5Z" fill="#DFE4EA"/>
<path d="M305.07 378.482C305.07 370.75 275.968 364.482 240.07 364.482C204.172 364.482 175.07 370.75 175.07 378.482C175.07 383.438 187.034 387.789 205.07 390.277V466.982C205.07 468.706 205.755 470.36 206.974 471.578C208.193 472.797 209.846 473.482 211.57 473.482C213.294 473.482 214.947 472.797 216.166 471.578C217.385 470.36 218.07 468.706 218.07 466.982V391.658C224.942 392.191 232.347 392.482 240.07 392.482C247.793 392.482 255.198 392.191 262.07 391.658V466.982C262.07 468.706 262.755 470.36 263.974 471.578C265.193 472.797 266.846 473.482 268.57 473.482C270.294 473.482 271.947 472.797 273.166 471.578C274.385 470.36 275.07 468.706 275.07 466.982V390.277C293.106 387.789 305.07 383.438 305.07 378.482Z" fill="#CCAE62"/>
<path d="M292.563 460.906H304.823L310.655 413.618H292.561L292.563 460.906Z" fill="#DBAFB5"/>
<path d="M328.467 472.289L289.936 472.29L289.936 457.403L313.58 457.402C317.528 457.402 321.314 458.97 324.106 461.762C326.898 464.554 328.467 468.34 328.467 472.289Z" fill="#7BD3C2"/>
<path d="M311.701 454.064L323.398 450.393L314.806 403.528L297.542 408.945L311.701 454.064Z" fill="#DBAFB5"/>
<path d="M349.366 454.175L312.603 465.712L308.145 451.508L330.704 444.429C334.472 443.246 338.554 443.609 342.054 445.437C345.553 447.265 348.184 450.408 349.366 454.175Z" fill="#7BD3C2"/>
<path d="M303.499 432.299L281.072 373.428C276.04 374.609 233.845 383.946 219.713 368.899C214.869 363.742 213.925 356.27 216.905 346.691L225.153 336.327L225.409 336.341C228.527 336.505 301.844 340.614 306.87 362.729C311.108 381.374 318.847 416.135 321.118 426.345C321.348 427.402 321.19 428.508 320.674 429.459C320.157 430.411 319.316 431.145 318.303 431.528L309.284 434.91C308.782 435.099 308.249 435.196 307.712 435.196C306.799 435.196 305.908 434.919 305.156 434.402C304.403 433.884 303.826 433.151 303.499 432.299Z" fill="#B386A1"/>
<path d="M290.499 439.299L268.072 380.428C263.04 381.609 220.845 390.945 206.713 375.899C201.869 370.742 200.925 363.27 203.905 353.691L212.153 343.327L212.409 343.341C215.527 343.505 288.844 347.614 293.87 369.729C298.108 388.374 305.847 423.135 308.118 433.345C308.348 434.402 308.19 435.508 307.674 436.459C307.157 437.411 306.316 438.145 305.303 438.528L296.284 441.91C295.782 442.099 295.249 442.196 294.712 442.196C293.799 442.196 292.908 441.919 292.156 441.402C291.403 440.884 290.826 440.151 290.499 439.299Z" fill="#B386A1"/>
<path d="M320.807 298.176C320.476 298.619 320.18 299.088 319.922 299.578L270.602 304.774L263.502 295.04L247.411 303.834L261.356 327.456L321.843 312.033C323.369 313.521 325.312 314.509 327.413 314.866C329.515 315.222 331.675 314.931 333.606 314.03C335.538 313.129 337.149 311.662 338.227 309.823C339.304 307.984 339.796 305.86 339.637 303.735C339.478 301.61 338.676 299.583 337.337 297.925C335.998 296.266 334.186 295.055 332.142 294.452C330.098 293.848 327.918 293.881 325.894 294.547C323.869 295.212 322.095 296.478 320.807 298.176Z" fill="#DBAFB5"/>
<path d="M203.588 356.8C202.913 356.313 202.386 355.65 202.065 354.882C201.744 354.115 201.642 353.273 201.769 352.451C204.552 334.108 201.35 307.832 198.175 289.018C197.524 285.201 197.777 281.285 198.913 277.583C200.049 273.881 202.036 270.497 204.715 267.701C207.394 264.905 210.69 262.775 214.34 261.483C217.99 260.19 221.892 259.77 225.734 260.257C229.076 260.698 232.387 261.351 235.647 262.211C241.061 263.574 245.851 266.74 249.228 271.186C252.605 275.633 254.369 281.097 254.229 286.679C253.754 304.833 257.44 327.484 259.047 336.38C259.157 336.991 259.139 337.618 258.996 338.222C258.852 338.826 258.586 339.394 258.213 339.891C257.848 340.382 257.384 340.791 256.851 341.093C256.318 341.394 255.727 341.581 255.118 341.641C237.31 343.458 218.106 352.142 208.243 357.157C207.61 357.484 206.907 357.656 206.194 357.658C205.256 357.655 204.344 357.354 203.588 356.8Z" fill="#58B19F"/>
<path d="M251.659 309.488C251.108 309.272 250.606 308.949 250.182 308.537C249.757 308.126 249.418 307.634 249.185 307.091L239.254 284.148C238.652 282.762 238.33 281.271 238.305 279.76C238.28 278.25 238.554 276.749 239.109 275.344C239.665 273.938 240.492 272.657 241.543 271.571C242.594 270.486 243.849 269.618 245.236 269.018C246.622 268.418 248.114 268.097 249.624 268.073C251.135 268.05 252.636 268.324 254.04 268.881C255.445 269.438 256.726 270.266 257.811 271.318C258.895 272.37 259.762 273.625 260.361 275.013L270.292 297.955C270.765 299.05 270.784 300.288 270.345 301.398C269.906 302.507 269.045 303.397 267.95 303.872L255.103 309.433C254.561 309.67 253.977 309.797 253.386 309.806C252.795 309.815 252.208 309.707 251.659 309.488Z" fill="#58B19F"/>
<path d="M273.807 296.176C273.476 296.619 273.18 297.088 272.922 297.578L223.602 302.774L216.502 293.04L200.411 301.834L214.356 325.456L274.843 310.033C276.369 311.521 278.312 312.509 280.413 312.866C282.515 313.222 284.675 312.931 286.606 312.03C288.538 311.129 290.149 309.662 291.227 307.823C292.304 305.984 292.796 303.86 292.637 301.735C292.478 299.61 291.676 297.583 290.337 295.925C288.998 294.266 287.186 293.055 285.142 292.452C283.098 291.848 280.918 291.881 278.894 292.547C276.869 293.212 275.095 294.478 273.807 296.176Z" fill="#DBAFB5"/>
<path d="M204.659 310.488C204.108 310.272 203.606 309.949 203.182 309.537C202.757 309.126 202.418 308.634 202.185 308.091L192.254 285.148C191.652 283.762 191.33 282.271 191.305 280.76C191.28 279.25 191.554 277.749 192.109 276.344C192.665 274.938 193.492 273.657 194.543 272.571C195.594 271.486 196.849 270.618 198.236 270.018C199.622 269.418 201.114 269.097 202.624 269.073C204.135 269.05 205.636 269.324 207.04 269.881C208.445 270.438 209.726 271.266 210.811 272.318C211.895 273.37 212.762 274.625 213.361 276.013L223.293 298.955C223.765 300.05 223.784 301.288 223.345 302.398C222.906 303.507 222.045 304.397 220.95 304.872L208.103 310.433C207.561 310.67 206.977 310.797 206.386 310.806C205.795 310.815 205.208 310.707 204.659 310.488Z" fill="#58B19F"/>
<path d="M223.906 252.452C237.471 252.452 248.467 241.456 248.467 227.891C248.467 214.326 237.471 203.33 223.906 203.33C210.342 203.33 199.345 214.326 199.345 227.891C199.345 241.456 210.342 252.452 223.906 252.452Z" fill="#DBAFB5"/>
<path d="M206.346 244.748C206.24 244.439 206.207 244.111 206.248 243.788C206.289 243.465 206.404 243.155 206.583 242.883C206.762 242.611 207.001 242.383 207.282 242.218C207.562 242.053 207.877 241.954 208.202 241.929C208.867 241.965 209.518 242.135 210.116 242.43C210.713 242.725 211.245 243.138 211.678 243.644C212.567 244.668 213.602 245.557 214.749 246.281C215.937 246.88 217.549 246.794 218.226 245.652C218.862 244.58 218.426 243.144 218.041 241.899C217.062 238.73 216.513 235.444 216.411 232.129C216.301 228.429 216.823 224.567 218.871 221.681C221.515 217.956 226.243 216.542 230.717 216.645C235.191 216.747 239.592 218.128 244.024 219.001C245.554 219.303 247.352 219.457 248.375 218.271C249.463 217.01 249.064 214.97 248.601 213.267C247.4 208.85 246.126 204.283 243.336 200.715C240.319 197.008 236.009 194.582 231.275 193.925C226.73 193.362 222.116 193.886 217.812 195.453C210.801 197.663 204.632 201.961 200.13 207.772C195.488 213.952 193.483 221.718 194.552 229.372C195.596 236.039 199.128 242.062 204.437 246.227L206.346 244.748Z" fill="#855F66"/>
<path d="M112.566 303.876C113.801 290.571 117.214 277.559 122.667 265.359C124.186 261.964 125.859 258.644 127.685 255.398C127.776 255.229 127.798 255.03 127.746 254.844C127.694 254.659 127.572 254.5 127.405 254.403C127.239 254.306 127.041 254.277 126.854 254.323C126.666 254.368 126.504 254.485 126.401 254.648C119.762 266.469 115.111 279.301 112.633 292.63C111.944 296.353 111.426 300.101 111.08 303.876C110.991 304.828 112.478 304.822 112.566 303.876Z" fill="#E6E6E6"/>
<path d="M131.285 257.782C136.484 257.782 140.699 253.567 140.699 248.368C140.699 243.169 136.484 238.954 131.285 238.954C126.086 238.954 121.871 243.169 121.871 248.368C121.871 253.567 126.086 257.782 131.285 257.782Z" fill="#CCAE62"/>
<path d="M113.529 304.126C114.331 295.494 116.544 287.053 120.082 279.138C121.068 276.936 122.153 274.782 123.337 272.676C123.397 272.566 123.411 272.437 123.377 272.317C123.343 272.197 123.264 272.094 123.156 272.031C123.048 271.968 122.92 271.949 122.798 271.979C122.677 272.008 122.571 272.084 122.505 272.19C118.197 279.858 115.18 288.183 113.573 296.831C113.126 299.245 112.79 301.677 112.565 304.126C112.508 304.744 113.472 304.74 113.529 304.126Z" fill="#E6E6E6"/>
<path d="M125.673 274.223C129.046 274.223 131.78 271.489 131.78 268.116C131.78 264.742 129.046 262.008 125.673 262.008C122.3 262.008 119.565 264.742 119.565 268.116C119.565 271.489 122.3 274.223 125.673 274.223Z" fill="#CCAE62"/>
<path d="M112.312 303.55C107.635 296.251 104.188 288.233 102.109 279.817C101.532 277.474 101.063 275.108 100.702 272.72C100.681 272.596 100.613 272.486 100.512 272.412C100.411 272.337 100.286 272.305 100.162 272.322C100.038 272.339 99.9252 272.403 99.8476 272.501C99.77 272.599 99.7335 272.723 99.7459 272.848C101.067 281.544 103.807 289.964 107.859 297.77C108.992 299.949 110.223 302.074 111.551 304.143C111.886 304.665 112.645 304.069 112.312 303.55Z" fill="#E6E6E6"/>
<path d="M99.7382 273.794C103.111 273.794 105.846 271.06 105.846 267.687C105.846 264.314 103.111 261.579 99.7382 261.579C96.3651 261.579 93.6307 264.314 93.6307 267.687C93.6307 271.06 96.3651 273.794 99.7382 273.794Z" fill="#CCAE62"/>
<path d="M93.5621 308.954V296.954C93.5634 295.761 94.038 294.617 94.8816 293.773C95.7252 292.929 96.869 292.455 98.0621 292.454H126.062C127.255 292.455 128.399 292.929 129.243 293.773C130.086 294.617 130.561 295.761 130.562 296.954V308.954C130.561 310.147 130.086 311.291 129.243 312.134C128.399 312.978 127.255 313.452 126.062 313.454H98.0621C96.869 313.452 95.7252 312.978 94.8816 312.134C94.038 311.291 93.5634 310.147 93.5621 308.954Z" fill="#DFE4EA"/>
<path d="M344.57 305.482H265.57C263.637 305.482 262.07 307.049 262.07 308.982C262.07 310.915 263.637 312.482 265.57 312.482H344.57C346.503 312.482 348.07 310.915 348.07 308.982C348.07 307.049 346.503 305.482 344.57 305.482Z" fill="#CCCCCC"/>
<path d="M397.57 312.482H308.57C306.847 312.48 305.194 311.795 303.976 310.576C302.757 309.358 302.072 307.706 302.07 305.982V256.982C302.072 255.259 302.757 253.607 303.976 252.388C305.194 251.17 306.847 250.484 308.57 250.482H397.57C399.293 250.484 400.945 251.17 402.164 252.388C403.383 253.607 404.068 255.259 404.07 256.982V305.982C404.068 307.706 403.383 309.358 402.164 310.576C400.945 311.795 399.293 312.48 397.57 312.482Z" fill="#CCCCCC"/>
<path d="M353.07 287.482C356.384 287.482 359.07 284.796 359.07 281.482C359.07 278.169 356.384 275.482 353.07 275.482C349.756 275.482 347.07 278.169 347.07 281.482C347.07 284.796 349.756 287.482 353.07 287.482Z" fill="white"/>
<path d="M624.07 378.482C624.07 370.75 594.969 364.482 559.07 364.482C523.172 364.482 494.07 370.75 494.07 378.482C494.07 383.438 506.034 387.789 524.07 390.277V466.982C524.07 468.706 524.755 470.36 525.974 471.578C527.193 472.797 528.846 473.482 530.57 473.482C532.294 473.482 533.947 472.797 535.166 471.578C536.385 470.36 537.07 468.706 537.07 466.982V391.658C543.942 392.191 551.347 392.482 559.07 392.482C566.793 392.482 574.198 392.191 581.07 391.658V466.982C581.07 468.706 581.755 470.36 582.974 471.578C584.193 472.797 585.846 473.482 587.57 473.482C589.294 473.482 590.947 472.797 592.166 471.578C593.385 470.36 594.07 468.706 594.07 466.982V390.277C612.106 387.789 624.07 383.438 624.07 378.482Z" fill="#CCAE62"/>
<path d="M566.257 250.34C581.721 250.34 594.257 237.804 594.257 222.34C594.257 206.876 581.721 194.34 566.257 194.34C550.793 194.34 538.257 206.876 538.257 222.34C538.257 237.804 550.793 250.34 566.257 250.34Z" fill="#836F3C"/>
<path d="M496.577 461.906H484.317L478.485 414.618H496.579L496.577 461.906Z" fill="#EBBEBE"/>
<path d="M475.56 458.403H499.204V473.289H460.673C460.673 471.334 461.058 469.399 461.806 467.592C462.554 465.786 463.651 464.145 465.033 462.763C466.416 461.38 468.057 460.284 469.863 459.536C471.669 458.788 473.605 458.403 475.56 458.403Z" fill="#C1CEAD"/>
<path d="M477.439 455.064L465.742 451.393L474.334 404.528L491.598 409.945L477.439 455.064Z" fill="#EBBEBE"/>
<path d="M458.436 445.429L480.995 452.508L476.537 466.712L439.774 455.175C440.36 453.31 441.307 451.578 442.561 450.079C443.816 448.579 445.353 447.342 447.086 446.437C448.819 445.532 450.713 444.977 452.661 444.804C454.608 444.631 456.57 444.843 458.436 445.429Z" fill="#C1CEAD"/>
<path d="M481.428 436.196C480.891 436.196 480.358 436.099 479.856 435.91L470.836 432.528C469.824 432.145 468.983 431.411 468.466 430.459C467.95 429.508 467.792 428.402 468.022 427.345C470.293 417.135 478.032 382.374 482.27 363.729C487.296 341.614 560.613 337.505 563.731 337.341L563.987 337.327L572.235 347.691C575.215 357.27 574.271 364.742 569.427 369.899C555.295 384.946 513.1 375.609 508.068 374.428L485.641 433.299C485.314 434.151 484.737 434.884 483.984 435.402C483.232 435.919 482.341 436.196 481.428 436.196Z" fill="#DAE5F2"/>
<path d="M494.428 443.196C493.891 443.196 493.358 443.099 492.856 442.91L483.836 439.528C482.824 439.145 481.983 438.411 481.466 437.459C480.95 436.508 480.792 435.402 481.022 434.345C483.293 424.135 491.032 389.374 495.27 370.729C500.296 348.614 573.613 344.505 576.731 344.341L576.987 344.327L585.235 354.691C588.215 364.27 587.271 371.742 582.427 376.899C568.295 391.945 526.1 382.609 521.068 381.428L498.641 440.299C498.314 441.151 497.737 441.884 496.984 442.402C496.232 442.919 495.341 443.196 494.428 443.196Z" fill="#DAE5F2"/>
<path d="M468.333 299.176C468.664 299.619 468.96 300.088 469.218 300.578L518.538 305.774L525.638 296.04L541.728 304.834L527.784 328.456L467.297 313.033C465.771 314.521 463.828 315.509 461.726 315.866C459.625 316.222 457.465 315.931 455.534 315.03C453.602 314.129 451.99 312.662 450.913 310.823C449.836 308.984 449.344 306.86 449.503 304.735C449.662 302.61 450.464 300.583 451.803 298.925C453.142 297.266 454.954 296.055 456.998 295.452C459.042 294.848 461.221 294.881 463.246 295.547C465.271 296.212 467.045 297.478 468.333 299.176Z" fill="#EBBEBE"/>
<path d="M582.946 358.658C582.233 358.656 581.53 358.484 580.896 358.157C571.034 353.142 551.83 344.458 534.022 342.641C533.413 342.581 532.822 342.394 532.289 342.093C531.756 341.791 531.292 341.382 530.927 340.891C530.554 340.394 530.287 339.826 530.144 339.222C530.001 338.618 529.983 337.991 530.093 337.38C531.7 328.484 535.386 305.833 534.911 287.679C534.771 282.097 536.535 276.633 539.912 272.186C543.289 267.74 548.078 264.574 553.493 263.211C556.753 262.351 560.064 261.698 563.406 261.257C567.247 260.77 571.149 261.19 574.8 262.483C578.45 263.775 581.746 265.905 584.425 268.701C587.104 271.497 589.091 274.881 590.227 278.583C591.362 282.285 591.615 286.201 590.965 290.018C587.79 308.832 584.588 335.108 587.371 353.451C587.498 354.273 587.396 355.115 587.075 355.882C586.754 356.65 586.227 357.313 585.552 357.8C584.796 358.355 583.884 358.655 582.946 358.658Z" fill="#B994AA"/>
<path d="M535.824 310.807C535.209 310.806 534.601 310.679 534.037 310.434L521.189 304.872C520.095 304.397 519.234 303.507 518.795 302.398C518.356 301.289 518.375 300.05 518.847 298.955L528.779 276.013C529.378 274.626 530.245 273.37 531.329 272.318C532.414 271.266 533.695 270.438 535.099 269.881C536.504 269.324 538.005 269.05 539.516 269.073C541.026 269.097 542.518 269.418 543.904 270.018C545.291 270.618 546.546 271.486 547.597 272.571C548.648 273.657 549.475 274.939 550.031 276.344C550.586 277.749 550.859 279.25 550.835 280.76C550.81 282.271 550.488 283.762 549.886 285.148L539.955 308.091C539.605 308.896 539.028 309.583 538.295 310.065C537.561 310.547 536.702 310.805 535.824 310.807Z" fill="#B994AA"/>
<path d="M565.234 253.452C578.798 253.452 589.795 242.456 589.795 228.891C589.795 215.326 578.798 204.33 565.234 204.33C551.669 204.33 540.673 215.326 540.673 228.891C540.673 242.456 551.669 253.452 565.234 253.452Z" fill="#EBBEBE"/>
<path d="M540.231 216.824C551.865 223.926 564.98 228.247 578.557 229.452L574.517 224.612C577.459 225.699 580.554 226.314 583.688 226.433C586.818 226.384 590.098 225.179 591.874 222.601C592.667 221.32 593.137 219.865 593.246 218.363C593.355 216.86 593.099 215.353 592.499 213.971C591.268 211.214 589.352 208.818 586.933 207.011C582.645 203.619 577.585 201.341 572.203 200.379C566.822 199.417 561.286 199.802 556.089 201.499C552.524 202.564 549.331 204.612 546.876 207.408C544.548 210.28 540.065 212.84 541.257 216.34L540.231 216.824Z" fill="#836F3C"/>
<path d="M569.364 197.003C561.617 189.147 552.243 183.085 541.901 179.244C535.262 176.784 528.036 175.265 521.095 176.661C514.155 178.058 507.591 182.86 505.655 189.669C504.072 195.238 505.707 201.233 508.164 206.475C510.621 211.717 513.901 216.577 515.888 222.015C517.916 227.563 518.526 233.529 517.662 239.373C516.799 245.216 514.49 250.751 510.945 255.476C507.399 260.201 502.73 263.965 497.361 266.428C491.992 268.89 486.093 269.973 480.199 269.577C487.019 270.491 493.304 273.696 499.97 275.402C506.636 277.108 514.503 276.992 519.456 272.217C524.697 267.164 524.802 258.949 524.549 251.674L523.419 219.229C523.227 213.714 523.063 208.021 525.052 202.874C527.041 197.726 531.768 193.218 537.286 193.265C541.469 193.3 545.171 195.834 548.525 198.333C551.879 200.831 555.43 203.497 559.596 203.869C563.762 204.241 568.519 201.158 568.207 196.987" fill="#836F3C"/>
<path d="M455.197 281.087L511.75 282.422L519.943 342.878L467.716 344.05L455.197 281.087Z" fill="#F8F3F3"/>
<path d="M515.333 297.176C515.664 297.619 515.96 298.088 516.218 298.578L565.538 303.774L572.638 294.04L588.728 302.834L574.784 326.456L514.297 311.033C512.771 312.521 510.828 313.509 508.726 313.866C506.625 314.222 504.465 313.931 502.534 313.03C500.602 312.129 498.99 310.662 497.913 308.823C496.836 306.984 496.344 304.86 496.503 302.735C496.662 300.61 497.464 298.583 498.803 296.925C500.142 295.266 501.954 294.055 503.998 293.452C506.042 292.848 508.221 292.881 510.246 293.547C512.271 294.212 514.045 295.478 515.333 297.176Z" fill="#EBBEBE"/>
<path d="M582.824 311.807C582.209 311.806 581.601 311.679 581.037 311.434L568.189 305.872C567.095 305.397 566.234 304.507 565.795 303.398C565.356 302.289 565.375 301.05 565.847 299.955L575.779 277.013C576.378 275.626 577.245 274.37 578.329 273.318C579.414 272.266 580.695 271.438 582.099 270.881C583.504 270.324 585.005 270.05 586.516 270.073C588.026 270.097 589.518 270.418 590.904 271.018C592.291 271.618 593.546 272.486 594.597 273.571C595.648 274.657 596.475 275.939 597.031 277.344C597.586 278.749 597.859 280.25 597.835 281.76C597.81 283.271 597.488 284.762 596.886 286.148L586.955 309.091C586.605 309.896 586.028 310.583 585.295 311.065C584.561 311.547 583.702 311.805 582.824 311.807Z" fill="#B994AA"/>
<path d="M466.57 311.482H68.5699C66.846 311.482 65.1927 312.167 63.9738 313.386C62.7548 314.605 62.0699 316.258 62.0699 317.982C62.0699 319.706 62.7548 321.36 63.9738 322.578C65.1927 323.797 66.846 324.482 68.5699 324.482H80.0699V465.982C80.0699 467.706 80.7548 469.36 81.9738 470.578C83.1927 471.797 84.846 472.482 86.5699 472.482C88.2939 472.482 89.9472 471.797 91.1661 470.578C92.3851 469.36 93.0699 467.706 93.0699 465.982V336.972L165.941 469.05C166.805 470.539 168.224 471.625 169.888 472.069C171.551 472.513 173.323 472.279 174.814 471.418C176.305 470.557 177.393 469.14 177.841 467.478C178.288 465.815 178.057 464.043 177.199 462.55L101.024 324.482H449.07V324.566L372.941 462.55C372.079 464.043 371.846 465.817 372.292 467.482C372.738 469.147 373.827 470.567 375.32 471.429C376.813 472.291 378.587 472.525 380.252 472.079C381.917 471.632 383.337 470.543 384.199 469.05L449.07 351.472V465.982C449.07 467.706 449.755 469.36 450.974 470.578C452.193 471.797 453.846 472.482 455.57 472.482C457.294 472.482 458.947 471.797 460.166 470.578C461.385 469.36 462.07 467.706 462.07 465.982V327.91L463.961 324.482H466.57C468.294 324.482 469.947 323.797 471.166 322.578C472.385 321.36 473.07 319.706 473.07 317.982C473.07 316.258 472.385 314.605 471.166 313.386C469.947 312.167 468.294 311.482 466.57 311.482Z" fill="#CCAE62"/>
<path d="M641.984 473.949H34.0196C33.7498 473.948 33.4914 473.822 33.3009 473.599C33.1104 473.375 33.0034 473.073 33.0034 472.758C33.0034 472.443 33.1104 472.14 33.3009 471.917C33.4914 471.694 33.7498 471.568 34.0196 471.567H641.984C642.255 471.567 642.514 471.693 642.705 471.916C642.896 472.139 643.003 472.442 643.003 472.758C643.003 473.074 642.896 473.376 642.705 473.6C642.514 473.823 642.255 473.949 641.984 473.949Z" fill="#CED6E0"/>
</g>
<defs>
<clipPath id="clip0_1229_1131">
<rect width="740.675" height="473.949" fill="white" transform="translate(-27)"/>
</clipPath>
</defs>
</svg>
